<svg xmlns="http://www.w3.org/2000/svg" viewBox="0 0 512 512">
  <defs>
    <linearGradient id="grad1" x1="0%" y1="0%" x2="100%" y2="100%">
      <stop offset="0%" style="stop-color:#E11D48;stop-opacity:1" />
      <stop offset="100%" style="stop-color:#be123c;stop-opacity:1" />
    </linearGradient>
  </defs>
  <rect width="512" height="512" rx="100" fill="white" />
  <path d="M256 120 C180 120 120 180 120 256 C120 332 180 392 256 392 C332 392 392 332 392 256 C392 180 332 120 256 120 Z" fill="none" stroke="url(#grad1)" stroke-width="40" />
  <circle cx="256" cy="256" r="60" fill="url(#grad1)" />
  <path d="M256 60 L256 120 M256 392 L256 452 M60 256 L120 256 M392 256 L452 256" stroke="#1f2937" stroke-width="30" stroke-linecap="round" />
  <g transform="rotate(45 256 256)">
     <rect x="236" y="100" width="40" height="312" rx="20" fill="#374151" opacity="0.8" />
     <rect x="100" y="236" width="312" height="40" rx="20" fill="#374151" opacity="0.8" />
  </g>
</svg>
